<svg fill="none" height="48" viewBox="0 0 48 48" width="48" xmlns="http://www.w3.org/2000/svg"><path d="m0 0h48v48h-48z" fill="#fff" fill-opacity=".01"/><g stroke="#000" stroke-linejoin="round" stroke-width="4"><path d="m24 25s0-16.5 0-17.5c0-1.28125.5-3.5 3-3.5s3 2.21875 3 3.5v22.5s5.7031-5.7031 7-7 3.0781-1.9219 4.5-.5 1.5938 2.9063 0 4.5c-1.5937 1.5937-6.5 6.5-6.5 6.5s-5.9062 10.5-9 10.5c-3.0937 0-13 0-13 0s-3 0-4.99998-2c-2-2-2-4.5-2-4.5s-.00004-24 0-24.7188c.00003-.7187.5-2.7812 3-2.7812 2.49998 0 2.99998 2 2.99998 2.7812v12.2188" stroke-linecap="round"/><rect height="12" rx="3" width="6" x="12" y="19"/><rect height="12" rx="3" width="6" x="18" y="19"/></g></svg>